<?xml version="1.0" encoding="utf-8"?>
<!-- Generator: Adobe Illustrator 16.0.0, SVG Export Plug-In . SVG Version: 6.00 Build 0)  -->
<!DOCTYPE svg PUBLIC "-//W3C//DTD SVG 1.1//EN" "http://www.w3.org/Graphics/SVG/1.1/DTD/svg11.dtd">
<svg version="1.1" id="Layer_1" xmlns="http://www.w3.org/2000/svg" xmlns:xlink="http://www.w3.org/1999/xlink" x="0px" y="0px"
	 width="500px" height="250px" viewBox="0 0 500 250" enable-background="new 0 0 500 250" xml:space="preserve">
<g id="Grafik">
</g>
<g id="Fläche" display="none">
	<rect display="inline" width="500" height="250"/>
</g>
<g id="Schnittlinie">
	<path opacity="0.5" fill="#FFEC03" enable-background="new    " d="M456.746,4.29H205.407
		c-33.485,88.975-89.239,152.142-179.442,173.142l0.001,8.25c26.915,0,139.593-6.75,199.909-101.188c4.313,0,230.871,0,230.871,0
		V4.29z"/>
	<path fill="#F9B232" d="M-166.102,49.978"/>
	<rect x="219.55" y="28.431" fill="none" width="183.5" height="29.5"/>
	<text transform="matrix(1 0 0 1 256.2744 36.9512)" font-family="'MyriadPro-Regular'" font-size="12">AC/DC Sensitive RCCB</text>
	<text transform="matrix(1 0 0 1 225.1763 51.3516)" font-family="'MyriadPro-Regular'" font-size="12">(residential current circuit breaker)</text>
</g>
<g id="grüne_Kurve" display="none">
	<path display="inline" fill="none" stroke="#FFFFFF" stroke-width="1.4173" stroke-miterlimit="10" d="M-31.572,149.693
		c89.793-21,145.293-84.167,178.626-173.142H397.25"/>
	<path display="inline" fill="none" stroke="#FFFFFF" stroke-width="1.4173" stroke-miterlimit="10" d="M-31.57,157.943
		c26.792,0,138.958-6.75,199-101.188c4.292,0,229.821,0,229.821,0"/>
</g>
<g id="rote_Kurve">
	<polyline fill="none" stroke="#3400A4" stroke-width="1.4173" stroke-miterlimit="10" points="26.923,195.182 51.112,195.182 
		52.237,194.557 53.175,194.557 54.05,193.932 54.987,193.307 56.237,193.307 56.862,193.932 57.987,195.182 175.862,195.182 
		178.862,191.619 178.862,193.4 180.3,195.182 219.737,195.182 220.05,193.4 221.44,194.791 225.675,195.182 226.425,192.744 
		226.425,195.182 249.05,195.182 250.55,189.619 251.361,194.807 263.986,195.182 265.611,192.244 266.55,186.682 266.55,97.417 
		267.126,74.741 267.154,139.941 267.809,139.939 267.809,165.307 268.941,165.307 268.941,171.369 269.361,171.369 269.3,190.994 
		271.55,195.182 274.8,195.182 275.925,193.432 277.486,195.182 315.487,195.182 315.487,192.682 317.05,195.182 455.746,195.182 	
		"/>
	<g>
		<g>
			
				<line fill="none" stroke="#3400A4" stroke-width="0.4252" stroke-miterlimit="10" x1="26.666" y1="74.722" x2="28.083" y2="74.722"/>
			
				<line fill="none" stroke="#3400A4" stroke-width="0.4252" stroke-miterlimit="10" stroke-dasharray="2.8613,5.7226" x1="33.806" y1="74.722" x2="451.559" y2="74.722"/>
			
				<line fill="none" stroke="#3400A4" stroke-width="0.4252" stroke-miterlimit="10" x1="454.42" y1="74.722" x2="455.837" y2="74.722"/>
		</g>
	</g>
</g>
<g id="gelbe_Kurve">
	<polyline fill="none" stroke="#DB0D81" stroke-width="2.126" stroke-miterlimit="10" points="26.923,195.182 51.112,195.182 
		52.237,194.557 53.175,194.557 54.05,193.932 54.987,193.307 56.237,193.307 56.862,193.932 57.987,195.182 175.862,195.182 
		178.862,191.619 178.862,193.4 180.3,195.182 219.737,195.182 220.05,193.4 221.44,194.791 225.675,195.182 226.425,192.744 
		226.425,195.182 249.05,195.182 250.55,189.619 251.361,194.807 263.986,195.182 266.361,192.682 267.361,187.869 267.8,165.682 
		267.8,193.682 269.361,195.182 274.8,195.182 275.925,193.432 277.486,195.182 315.487,195.182 315.487,192.682 317.05,195.182 
		455.746,195.182 	"/>
	<g>
		<g>
			
				<line fill="none" stroke="#DB0D81" stroke-width="0.4252" stroke-miterlimit="10" x1="26.666" y1="165.168" x2="28.083" y2="165.168"/>
			
				<line fill="none" stroke="#DB0D81" stroke-width="0.4252" stroke-miterlimit="10" stroke-dasharray="2.8613,5.7226" x1="33.806" y1="165.168" x2="451.559" y2="165.168"/>
			
				<line fill="none" stroke="#DB0D81" stroke-width="0.4252" stroke-miterlimit="10" x1="454.42" y1="165.168" x2="455.837" y2="165.168"/>
		</g>
	</g>
</g>
<g id="Ableitstrom_in_mA">
</g>
<g id="Layer_8">
	<rect x="26.257" y="226.266" fill="none" width="429.822" height="20.666"/>
	<text transform="matrix(1 0 0 1 200.7705 234.7852)" font-family="'MyriadPro-Regular'" font-size="12">Frequency (kHz)</text>
	<rect x="17.305" y="205.6" fill="none" width="21.155" height="20.666"/>
	<text transform="matrix(1 0 0 1 24.8047 214.1191)" font-family="'MyriadPro-Regular'" font-size="12">0</text>
	<rect x="183.971" y="205.6" fill="none" width="29.156" height="20.666"/>
	<text transform="matrix(1 0 0 1 195.4707 214.1191)" font-family="'MyriadPro-Regular'" font-size="12">1</text>
	<rect x="371.304" y="205.6" fill="none" width="29.156" height="20.666"/>
	<text transform="matrix(1 0 0 1 379.7246 214.1191)" font-family="'MyriadPro-Regular'" font-size="12">10</text>
	<rect x="435.97" y="205.6" fill="none" width="29.156" height="20.666"/>
	<text transform="matrix(1 0 0 1 444.3906 214.1191)" font-family="'MyriadPro-Regular'" font-size="12">25</text>
	<rect x="7.216" y="-28.277" fill="none" width="20.666" height="225.708"/>
	<text transform="matrix(4.489659e-011 -1 1 4.489659e-011 15.7354 139.0313)" font-family="'MyriadPro-Regular'" font-size="12">Leakage Current (mA)</text>
</g>
<g id="Layer_9">
	<rect x="271.717" y="93.431" fill="none" width="233" height="28"/>
	<text transform="matrix(1 0 0 1 271.7168 101.9512)" fill="#3400A4" font-family="'MyriadPro-Regular'" font-size="12">Standard HF Filter</text>
	<rect x="271.717" y="151.168" fill="none" width="233" height="28"/>
	<text transform="matrix(1 0 0 1 271.7168 159.6875)" fill="#DB0D81" font-family="'MyriadPro-Regular'" font-size="12">KEB E6 Filter</text>
</g>
</svg>
