<?xml version="1.0" encoding="utf-8"?>
<!-- Generator: Adobe Illustrator 15.0.0, SVG Export Plug-In . SVG Version: 6.00 Build 0)  -->
<!DOCTYPE svg PUBLIC "-//W3C//DTD SVG 1.1//EN" "http://www.w3.org/Graphics/SVG/1.1/DTD/svg11.dtd">
<svg version="1.1" xmlns="http://www.w3.org/2000/svg" xmlns:xlink="http://www.w3.org/1999/xlink" x="0px" y="0px"
	 width="552.055px" height="203.188px" viewBox="0 0 552.055 203.188" enable-background="new 0 0 552.055 203.188"
	 xml:space="preserve">
<g id="Layer_2">
	<rect x="-3" y="-93.009" stroke="#FFFFFF" stroke-miterlimit="10" width="564.056" height="345.034"/>
	<g>
		<path fill="#FFFFFF" d="M459.261,104.398v14.817c-1.619,0.16-3.272,0.249-4.944,0.249c-27.554,0-50.019-22.465-50.019-50
			s22.465-50,50.019-50c1.672,0,3.325,0.089,4.944,0.249v14.817c-1.619-0.232-3.272-0.356-4.944-0.356
			c-19.442,0-35.309,15.866-35.309,35.29c0,19.441,15.866,35.29,35.309,35.29C455.988,104.754,457.642,104.629,459.261,104.398z"/>
		<path fill="#FFFFFF" d="M505.792,61.833h28.887v15.279h-28.887c3.504,15.777,17.628,27.642,34.454,27.642
			c1.672,0,3.344-0.125,4.963-0.356v14.817c-1.637,0.16-3.291,0.249-4.963,0.249c-27.553,0-50-22.465-50-50s22.447-50,50-50
			c1.672,0,3.326,0.089,4.963,0.249v14.817c-1.637-0.232-3.291-0.356-4.963-0.356C523.42,34.174,509.296,46.039,505.792,61.833z"/>
	</g>
</g>
<g id="Layer_1">
	<g>
		<path fill="#FFFFFF" d="M134.747,70.435h6.042v19.484c0,1.239,0.381,2.307,2.113,2.307c1.593,0,2.078-1.376,2.078-2.478V70.435
			h6.043v18.694c0,4.367-1.957,7.729-8.156,7.729c-5.134,0-8.121-2.436-8.121-7.729V70.435"/>
		<path fill="#FFFFFF" d="M159.372,87.617v1.826c0,1.482,0.484,2.793,2.425,2.793c1.417,0,2.038-1.275,2.038-2.585
			c0-2.173-1.796-2.999-3.385-3.964c-1.867-1.068-3.458-2.068-4.599-3.378c-1.107-1.31-1.765-2.895-1.765-5.17
			c0-4.867,2.941-7.356,7.642-7.356c5.283,0,7.977,3.526,7.701,8.39h-5.595c-0.068-1.516,0-3.584-2.003-3.722
			c-1.244-0.104-1.969,0.586-2.108,1.723c-0.172,1.552,0.623,2.345,1.832,3.172c2.279,1.447,4.249,2.344,5.664,3.653
			c1.415,1.31,2.244,3.032,2.244,6.17c0,4.969-2.763,7.734-7.809,7.734c-5.57,0-7.921-3.111-7.921-6.529v-2.757H159.372"/>
		<path fill="#FFFFFF" d="M78.266,119.464c-27.613,0-50-22.386-50-50c0-27.614,22.386-50,50-50c27.614,0,50.001,22.386,50.001,50
			C128.267,97.079,105.88,119.464,78.266,119.464 M78.266,110.178c22.487,0,40.718-18.23,40.718-40.718
			c0-22.487-18.231-40.717-40.718-40.717S37.549,46.974,37.549,69.46C37.549,91.948,55.779,110.178,78.266,110.178"/>
		<path fill="#FFFFFF" stroke="#000000" stroke-width="1.1553" d="M66.262,90.744"/>
		<path fill="#FFFFFF" d="M53.873,42.649h9.221v29.707c0,1.889,0.578,3.517,3.205,3.517c2.417,0,3.152-2.1,3.152-3.778V42.649h9.221
			v28.5c0,6.667-2.986,11.814-12.425,11.814c-7.816,0-12.374-3.729-12.374-11.814V42.649"/>
		<polyline fill="#FFFFFF" points="82.303,96.286 82.303,56.888 91.523,56.888 91.523,88.393 102.813,88.393 102.813,96.286 
			82.303,96.286 		"/>
		<path fill="#FFFFFF" d="M65.117,88.334h0.957c0.458,0,1.283,0.024,1.3,1.077c0.016,1.07-0.866,1.119-1.185,1.127h-1.072V88.334
			 M65.117,91.154h1.187c0.8,0,1.046,0.522,1.046,1.135c0,0.408,0.065,1.167,0.212,1.558h0.792v-0.137
			c-0.164,0-0.212-0.271-0.237-0.385c-0.065-0.456-0.106-0.905-0.131-1.362c-0.098-0.816-0.293-1.071-1.086-1.145v-0.017
			c0.711-0.099,1.152-0.614,1.176-1.332c0.041-1.413-0.776-1.75-2.06-1.75h-1.578v6.127h0.678V91.154"/>
		<circle fill="#FFFFFF" stroke="#FFFFFF" stroke-width="0.7025" cx="66.288" cy="90.782" r="5.303"/>
		<path fill="#FFFFFF" d="M15.508,79.491v-1.65c0-2.199-0.789-3.333-1.911-3.333c-1.893-0.035-2.34,0.996-2.34,2.681l-0.035,12.751
			c0,1.444,0.585,2.303,2.169,2.303c2.065,0,2.237-2.131,2.237-3.711v-2.338h6.048v3.162c0,4.44-2.543,7.546-8.739,7.546
			c-5.563,0-7.728-2.968-7.728-8.233V78.081c0-5.61,2.577-8.233,8.105-8.233c5.149,0,8.242,2.209,8.242,7.478v2.166H15.508"/>
	</g>
	<g>
		<polygon fill="#FFFFFF" stroke="#FFFFFF" stroke-miterlimit="10" points="323.003,93.278 320.102,96.575 316.819,99.593 
			313.258,102.231 309.449,104.341 305.359,106.173 301.022,107.36 296.552,108.152 291.936,108.547 287.862,108.283 
			283.921,107.625 280.242,106.701 276.55,105.381 273.135,103.681 269.838,101.704 266.819,99.461 264.05,96.97 261.558,94.201 
			259.185,91.036 257.206,87.884 255.623,84.456 254.319,80.778 253.264,76.953 252.737,73.142 252.473,69.083 252.737,64.995 
			253.264,61.184 254.319,57.36 255.623,53.682 257.206,50.252 259.185,47.102 261.558,43.937 264.05,41.182 266.819,38.676 
			269.838,36.434 273.135,34.455 276.55,32.755 280.242,31.437 283.921,30.514 287.862,29.854 291.936,29.59 295.894,29.854 
			299.704,30.381 303.396,31.437 307.074,32.623 310.372,34.323 313.653,36.17 316.688,38.412 319.442,40.917 327.209,33.679 
			323.663,30.514 319.838,27.744 315.765,25.252 311.559,23.273 306.942,21.692 302.209,20.504 297.344,19.728 292.333,19.464 
			287.203,19.728 282.353,20.504 277.473,21.692 272.871,23.406 268.533,25.517 264.445,28.007 260.504,30.909 256.941,34.074 
			253.791,37.62 250.89,41.563 248.385,45.651 246.288,49.989 244.574,54.605 243.388,59.47 242.596,64.334 242.332,69.464 
			242.596,74.593 243.388,79.589 244.574,84.324 246.288,88.939 248.385,93.278 250.89,97.499 253.791,101.307 256.941,104.855 
			260.504,108.02 264.445,110.921 268.533,113.412 272.871,115.523 277.473,117.237 282.353,118.423 287.203,119.201 
			292.333,119.464 298.253,119.201 303.792,118.161 309.185,116.577 314.313,114.335 319.178,111.712 323.663,108.547 
			327.736,104.855 331.43,100.781 		"/>
		<polygon fill="#FFFFFF" stroke="#FFFFFF" stroke-miterlimit="10" points="277.736,88.676 275.245,86.83 273.135,84.719 
			271.553,82.756 270.365,80.778 269.442,78.931 268.402,75.912 259.712,75.912 260.239,78.271 261.031,80.513 262.086,82.756 
			263.259,84.983 264.71,87.093 266.291,89.204 268.006,91.167 269.838,93.013 271.816,94.729 273.927,96.31 276.169,97.629 
			278.528,98.802 281.033,99.858 283.525,100.649 286.163,101.176 288.785,101.572 289.05,68.424 274.322,53.55 274.981,52.231 
			276.285,50.385 277.208,49.329 278.396,48.406 279.847,47.498 281.693,46.707 281.693,49.857 288.918,49.857 288.918,36.17 
			285.768,36.566 282.353,37.357 278.792,38.676 275.377,40.522 271.816,42.881 268.666,45.915 265.633,49.329 262.863,53.55 
			280.902,73.011 280.902,90.523 		"/>
		<path fill="#FFFFFF" stroke="#FFFFFF" stroke-miterlimit="10" d="M313.522,77.875l-0.396,1.451l-0.527,1.187l-1.305,2.11
			l-1.583,2.228l6.448,5.672l2.491-3.298l2.242-3.562l1.714-3.546l1.188-3.81l0.791-3.957l0.133-4.191l-0.528-4.352l-1.188-4.734
			l-0.923-2.506l-0.923-2.227l-1.187-2.11l-1.437-2.111l-1.451-1.963l-1.582-1.846l-1.715-1.583l-1.715-1.583l-2.829-1.89
			l-1.113-0.733l-4.073-2.11l-4.484-1.451l-2.228-0.528l-2.241-0.263v65.401l3.413-0.66l2.902-0.791l2.374-0.923V74.593h5.45h4.544
			v1.847L313.522,77.875z M309.242,64.995h-5.055V48.025l2.359,1.436l1.979,1.847l0.717,0.834l0.997,1.143l1.437,2.229l1.055,2.375
			l0.923,2.373l0.528,2.492l0.132,2.242H309.242z"/>
	</g>
</g>
</svg>
